HIERARCHY
ROOT Hips
{
 OFFSET 0.000000 0.000000 0.000000
 CHANNELS 6 Xposition Yposition Zposition Yrotation Xrotation Zrotation
 JOINT Chest
 {
  OFFSET 0.000000 9.585900 0.002600
  CHANNELS 3 Yrotation Xrotation Zrotation
  JOINT Chest2
  {
   OFFSET 0.000000 9.601200 -0.005300
   CHANNELS 3 Yrotation Xrotation Zrotation
   JOINT Chest3
   {
    OFFSET 0.000000 9.561800 0.000000
    CHANNELS 3 Yrotation Xrotation Zrotation
    JOINT Chest4
    {
     OFFSET 0.000000 9.552100 0.000000
     CHANNELS 3 Yrotation Xrotation Zrotation
     JOINT Neck
     {
      OFFSET 0.000000 14.453000 0.000000
      CHANNELS 3 Yrotation Xrotation Zrotation
      JOINT Head
      {
       OFFSET 0.000000 8.936500 -0.011300
       CHANNELS 3 Yrotation Xrotation Zrotation
       End Site
       {
        OFFSET 0.000000 17.073600 -0.006000
       }
      }
     }
     JOINT RightCollar
     {
      OFFSET -2.921100 9.558500 0.000000
      CHANNELS 3 Yrotation Xrotation Zrotation
      JOINT RightShoulder
      {
       OFFSET -13.519700 0.000000 0.000000
       CHANNELS 3 Yrotation Xrotation Zrotation
       JOINT RightElbow
       {
        OFFSET 0.000000 -29.696600 0.000000
        CHANNELS 3 Yrotation Xrotation Zrotation
        JOINT RightWrist
        {
         OFFSET 0.000000 -24.004700 0.000000
         CHANNELS 3 Yrotation Xrotation Zrotation
         End Site
         {
          OFFSET 0.000000 -17.728500 0.000000
         }
        }
       }
      }
     }
     JOINT LeftCollar
     {
      OFFSET 2.921100 9.558500 0.000000
      CHANNELS 3 Yrotation Xrotation Zrotation
      JOINT LeftShoulder
      {
       OFFSET 13.519700 0.000000 0.000000
       CHANNELS 3 Yrotation Xrotation Zrotation
       JOINT LeftElbow
       {
        OFFSET 0.000000 -29.696600 0.000000
        CHANNELS 3 Yrotation Xrotation Zrotation
        JOINT LeftWrist
        {
         OFFSET 0.000000 -24.004700 0.000000
         CHANNELS 3 Yrotation Xrotation Zrotation
         End Site
         {
          OFFSET 0.000000 -17.728500 0.000000
         }
        }
       }
      }
     }
    }
   }
  }
 }
 JOINT RightHip
 {
  OFFSET -7.771700 -0.012900 -0.001300
  CHANNELS 3 Yrotation Xrotation Zrotation
  JOINT RightKnee
  {
   OFFSET 0.000000 -40.869800 0.001200
   CHANNELS 3 Yrotation Xrotation Zrotation
   JOINT RightAnkle
   {
    OFFSET 0.000000 -39.717900 0.002100
    CHANNELS 3 Yrotation Xrotation Zrotation
    JOINT RightToe
    {
     OFFSET 0.000000 -4.965400 11.033500
     CHANNELS 3 Yrotation Xrotation Zrotation
     End Site
     {
      OFFSET 0.000000 -1.423100 5.872300
     }
    }
   }
  }
 }
 JOINT LeftHip
 {
  OFFSET 7.771700 -0.012900 -0.001300
  CHANNELS 3 Yrotation Xrotation Zrotation
  JOINT LeftKnee
  {
   OFFSET 0.000000 -40.869800 0.001200
   CHANNELS 3 Yrotation Xrotation Zrotation
   JOINT LeftAnkle
   {
    OFFSET 0.000000 -39.717900 0.002100
    CHANNELS 3 Yrotation Xrotation Zrotation
    JOINT LeftToe
    {
     OFFSET 0.000000 -4.965400 11.033500
     CHANNELS 3 Yrotation Xrotation Zrotation
     End Site
     {
      OFFSET 0.000000 -1.423100 5.872300
     }
    }
   }
  }
 }
}
MOTION
Frames: 16
Frame Time: 0.008333
0.000000 85.388000 0.000000 0.000000 -5.767877 0.000000 0.000000 11.653817 0.000000 0.000000 -5.885947 0.000000 0.000000 -0.000000 0.000000 0.000000 -0.000000 0.000000 0.000000 12.528835 0.000000 0.000000 0.711642 0.000000 0.000000 -0.000000 0.000000 0.000000 0.000000 -90.000000 0.000000 -2.309062 0.000000 0.000000 2.309062 0.000000 0.000000 -0.000000 0.000000 0.000000 -0.000000 90.000000 0.000000 -2.309062 0.000000 0.000000 2.309062 0.000000 0.000000 8.520406 0.000000 0.000000 1.905762 0.000000 -0.000000 -4.658285 0.000000 0.000000 -0.000000 0.000000 0.000000 8.520406 0.000000 0.000000 1.905762 0.000000 -0.000000 -4.658285 0.000000 0.000000 -0.000000 0.000000
5.178839 50.019208 44.334577 174.540482 -32.406541 -6.794969 7.220438 17.899164 7.564822 0.775868 2.262648 0.736433 1.289927 3.752272 1.188856 6.072644 15.498776 5.724145 -2.033363 26.009704 3.704868 -4.444115 12.620165 7.085277 -6.689914 -2.323010 -9.426402 14.152884 -7.796697 -2.288240 -174.998830 -55.850949 175.616944 -9.023359 -13.294800 24.539258 -10.346157 -3.857243 6.332766 -0.360417 -7.260134 0.229954 155.980814 -57.507369 -164.396576 31.834430 8.000246 -30.269904 -1.790032 -48.848420 9.585806 -93.835577 85.411808 -82.635040 -0.952562 -9.425655 -4.324786 -0.251282 0.675276 -0.118404 -10.763560 -52.343269 16.419032 -140.781279 83.804327 -148.662913 0.065040 -13.172927 7.218948 -0.171619 -0.562501 -0.113958
5.174315 50.017001 44.341004 174.543497 -32.421531 -6.802814 7.222586 17.917627 7.567777 0.778221 2.286873 0.721029 1.292679 3.785238 1.190982 6.081537 15.476681 5.728418 -2.070630 26.039345 3.657317 -4.481064 12.567618 7.014991 -6.724029 -2.255672 -9.397797 14.063299 -7.814504 -2.280485 -175.058516 -55.906127 175.602771 -8.981806 -13.238010 24.461147 -10.341698 -3.766086 6.313879 -0.328909 -7.269865 0.250658 156.159667 -57.593443 -164.394697 31.750306 8.008203 -30.285042 -1.795560 -48.832057 9.588787 -93.717828 85.404857 -82.511388 -0.983651 -9.430575 -4.316068 -0.267223 0.683068 -0.125521 -10.757800 -52.337162 16.397113 -140.780586 83.807055 -148.639402 0.084113 -13.166168 7.207742 -0.166962 -0.562235 -0.109682
5.170250 50.017285 44.343587 174.549627 -32.474074 -6.818475 7.226368 17.975601 7.567569 0.772233 2.337414 0.709372 1.301372 3.800484 1.206710 6.081303 15.596645 5.719239 -2.056966 25.883569 3.648614 -4.549280 12.513894 6.905124 -6.730162 -2.331803 -9.346568 13.966092 -7.823368 -2.281586 -175.107800 -55.953478 175.587524 -8.942412 -13.189710 24.414968 -10.304319 -3.814167 6.322126 -0.317877 -7.349307 0.281027 156.366943 -57.741210 -164.377531 31.662887 8.008985 -30.257692 -1.808156 -48.775539 9.590298 -93.642932 85.414636 -82.441710 -0.922744 -9.421998 -4.329744 -0.250232 0.682768 -0.116388 -10.733881 -52.291971 16.357412 -140.932652 83.816410 -148.761537 0.109028 -13.165324 7.200064 -0.179860 -0.564447 -0.111884
5.166090 50.017511 44.345693 174.556122 -32.536624 -6.837415 7.227783 18.049359 7.573129 0.776832 2.344417 0.718942 1.293643 3.857647 1.204788 6.070728 15.690754 5.715947 -2.087723 25.807364 3.570110 -4.566527 12.374832 6.807361 -6.721734 -2.380824 -9.308682 13.860717 -7.819686 -2.295881 -175.147200 -55.987167 175.568007 -8.903664 -13.155698 24.384252 -10.246394 -3.836635 6.306890 -0.311296 -7.434722 0.312378 156.606612 -57.897166 -164.386761 31.568301 8.002587 -30.182962 -1.822198 -48.707687 9.595084 -93.554582 85.424859 -82.355031 -0.870090 -9.417076 -4.341808 -0.195503 0.679674 -0.110665 -10.731750 -52.231092 16.351662 -140.994195 83.819137 -148.816663 0.112308 -13.165179 7.199892 -0.180079 -0.564624 -0.111591
5.163368 50.016149 44.349728 174.558355 -32.590649 -6.865486 7.230944 18.128318 7.588793 0.768620 2.385454 0.717918 1.300527 3.877599 1.212310 6.062442 15.756213 5.716157 -2.128502 25.746120 3.476799 -4.582187 12.206499 6.689885 -6.711114 -2.409470 -9.274053 13.746045 -7.803763 -2.320479 -175.191246 -56.008720 175.557522 -8.860680 -13.143475 24.348747 -10.182820 -3.841381 6.279578 -0.277522 -7.384761 0.316653 156.925394 -57.939538 -164.532117 31.460649 7.993254 -30.065682 -1.844395 -48.646396 9.607083 -93.430288 85.435876 -82.231056 -0.758411 -9.414719 -4.367782 -0.275463 0.690471 -0.100332 -10.748801 -52.178418 16.370520 -141.088871 83.821974 -148.906585 0.117867 -13.169152 7.200033 -0.186943 -0.560786 -0.113926
5.160110 50.012990 44.354946 174.557801 -32.635520 -6.888777 7.210757 18.255158 7.576666 0.789965 2.382693 0.734665 1.310557 3.896805 1.221153 6.054515 15.825346 5.718623 -2.159370 25.651706 3.390267 -4.623087 12.027894 6.546227 -6.699745 -2.447075 -9.240517 13.621808 -7.778526 -2.346954 -175.258807 -56.023689 175.574611 -8.812105 -13.152394 24.303744 -10.111706 -3.857990 6.245683 -0.276766 -7.423358 0.334132 157.145972 -58.057895 -164.552886 31.339523 7.994680 -29.928002 -1.861902 -48.597820 9.626746 -93.313758 85.426154 -82.101956 -0.746353 -9.420047 -4.371687 -0.202241 0.699576 -0.106424 -10.766792 -52.139767 16.384555 -141.133673 83.819128 -148.939373 0.129444 -13.166492 7.188652 -0.183923 -0.561368 -0.109937
5.157742 50.012277 44.354879 174.565853 -32.714375 -6.915983 7.218426 18.353572 7.603188 0.783390 2.430117 0.735189 1.313817 3.933760 1.227126 6.044686 15.900404 5.720726 -2.193859 25.542747 3.296887 -4.669386 11.822193 6.391746 -6.686387 -2.494261 -9.206694 13.490424 -7.747424 -2.374774 -175.342378 -56.037384 175.609390 -8.759257 -13.168926 24.256830 -10.031016 -3.890113 6.204780 -0.304734 -7.546056 0.374163 157.233312 -58.248507 -164.420983 31.213724 8.010636 -29.800736 -1.880650 -48.513752 9.654776 -93.241036 85.408666 -82.013597 -0.792166 -9.424664 -4.366099 -0.235567 0.686617 -0.114335 -10.776778 -52.062291 16.395456 -141.124371 83.810057 -148.927978 0.139015 -13.166898 7.187067 -0.178900 -0.565037 -0.105724
5.153612 50.006686 44.360376 174.570555 -32.745907 -6.928902 7.218700 18.408646 7.611869 0.774417 2.478408 0.738886 1.316358 3.972761 1.233089 6.030885 15.979970 5.721425 -2.227054 25.421959 3.198909 -4.712689 11.594232 6.229301 -6.665020 -2.544445 -9.174852 13.351649 -7.710912 -2.407197 -175.420914 -56.055339 175.639335 -8.710586 -13.184957 24.213876 -9.943532 -3.933921 6.153538 -0.281797 -7.496586 0.359344 157.375120 -58.305026 -164.443489 31.094420 8.034958 -29.707336 -1.890256 -48.482351 9.652453 -93.231333 85.402271 -81.989049 -0.774478 -9.436160 -4.376336 -0.256844 0.698080 -0.116290 -10.786297 -52.037054 16.401094 -141.150588 83.808413 -148.954824 0.143006 -13.170915 7.190059 -0.180688 -0.557091 -0.097694
5.151384 50.003830 44.360697 174.579844 -32.807128 -6.946039 7.197044 18.570078 7.616798 0.795152 2.456921 0.746240 1.318025 4.012810 1.239036 6.013189 16.061955 5.721134 -2.256942 25.290961 3.100789 -4.750364 11.347026 6.066346 -6.632790 -2.598488 -9.146046 13.206073 -7.663598 -2.445893 -175.485509 -56.080140 175.658318 -8.669433 -13.198202 24.166158 -9.857216 -3.986444 6.086700 -0.263249 -7.501284 0.356142 157.404309 -58.413182 -164.355795 30.986112 8.071940 -29.655855 -1.899056 -48.417765 9.642321 -93.246992 85.411685 -81.995259 -0.712815 -9.439486 -4.385426 -0.250389 0.701681 -0.120898 -10.795320 -51.981565 16.401994 -141.141292 83.798057 -148.946366 0.158580 -13.166221 7.198659 -0.181177 -0.562902 -0.104240
5.151598 50.003454 44.356954 174.603694 -32.887799 -6.975596 7.178259 18.713020 7.637633 0.795862 2.483039 0.749754 1.318833 4.053595 1.244462 5.991887 16.145959 5.718265 -2.283937 25.148361 3.006274 -4.784028 11.078267 5.909658 -6.584499 -2.666589 -9.116580 13.058232 -7.602345 -2.491466 -175.546256 -56.116419 175.670087 -8.631989 -13.206075 24.111112 -9.775588 -4.052020 6.002958 -0.245762 -7.524703 0.373518 157.335460 -58.536782 -164.174135 30.881214 8.131849 -29.641643 -1.922633 -48.330986 9.653555 -93.261249 85.416018 -82.006605 -0.688196 -9.435863 -4.382644 -0.209187 0.686505 -0.120378 -10.824676 -51.905360 16.412491 -141.144843 83.780050 -148.954829 0.182873 -13.150656 7.197482 -0.187421 -0.583916 -0.105684
5.151111 50.000043 44.357371 174.610097 -32.927767 -6.985234 7.171476 18.787582 7.645441 0.779237 2.550510 0.753183 1.318547 4.095215 1.249147 5.966029 16.232443 5.711918 -2.310482 24.993742 2.915575 -4.818140 10.787519 5.760122 -6.515841 -2.754471 -9.088375 12.908899 -7.528520 -2.539458 -175.612471 -56.169266 175.677619 -8.590245 -13.207196 24.053775 -9.695222 -4.134371 5.904847 -0.233986 -7.536231 0.401151 157.224301 -58.655434 -163.952051 30.771431 8.216863 -29.656332 -1.924971 -48.289163 9.647772 -93.266048 85.414195 -82.000402 -0.672431 -9.444251 -4.380019 -0.195087 0.694229 -0.130733 -10.827622 -51.869634 16.412783 -141.092667 83.768777 -148.902825 0.195539 -13.154275 7.196456 -0.188256 -0.581724 -0.105286
5.151140 49.997134 44.357273 174.629680 -32.957594 -6.995825 7.130788 18.929238 7.639905 0.786568 2.559061 0.756226 1.317378 4.138209 1.253802 5.936243 16.321821 5.704554 -2.289972 24.791164 2.851193 -4.906092 10.511998 5.611300 -6.430176 -2.859544 -9.067994 12.758444 -7.445127 -2.584462 -175.680217 -56.236838 175.682064 -8.534330 -13.199270 23.987015 -9.616542 -4.233327 5.795200 -0.236304 -7.536589 0.435221 157.124788 -58.781173 -163.712475 30.670119 8.328161 -29.705088 -1.924365 -48.254886 9.621833 -93.313287 85.418391 -82.025894 -0.653037 -9.457621 -4.385615 -0.245036 0.697317 -0.134906 -10.840355 -51.846090 16.411540 -141.048279 83.756833 -148.864713 0.212845 -13.146515 7.201219 -0.193727 -0.589534 -0.104533
5.152950 49.994625 44.357622 174.640434 -32.974037 -7.003506 7.094389 19.067153 7.634770 0.794633 2.566164 0.759360 1.315716 4.182948 1.258974 5.903907 16.414062 5.698203 -2.346650 24.634834 2.753330 -4.928073 10.169649 5.478102 -6.333194 -2.972370 -9.056470 12.609153 -7.358207 -2.627028 -175.749257 -56.317344 175.688078 -8.469663 -13.181808 23.908136 -9.544852 -4.344515 5.677110 -0.241710 -7.528301 0.473909 157.049123 -58.917934 -163.465703 30.578560 8.455249 -29.774301 -1.931004 -48.237514 9.619877 -93.333725 85.420350 -82.042783 -0.641797 -9.461284 -4.386724 -0.223270 0.694146 -0.126739 -10.843274 -51.833637 16.414044 -141.060801 83.752308 -148.878120 0.214024 -13.146323 7.204829 -0.196282 -0.590122 -0.101194
5.156572 49.993547 44.356906 174.653870 -32.987242 -7.014220 7.060016 19.181418 7.632316 0.793668 2.595764 0.762979 1.313739 4.229045 1.264345 5.870052 16.508314 5.692009 -2.404382 24.475194 2.662916 -4.951356 9.815969 5.352504 -6.229902 -3.081169 -9.052084 12.460627 -7.273364 -2.668822 -175.820648 -56.415944 175.695804 -8.406139 -13.159837 23.832462 -9.479079 -4.463503 5.553359 -0.242331 -7.507875 0.520406 156.968693 -59.055749 -163.222448 30.472271 8.564748 -29.808922 -1.942104 -48.222104 9.617593 -93.416796 85.419196 -82.115895 -0.622250 -9.466248 -4.399367 -0.217096 0.692195 -0.121591 -10.832862 -51.825610 16.420493 -141.025030 83.742425 -148.838424 0.195335 -13.140651 7.210518 -0.185579 -0.594011 -0.092420
5.162722 49.994486 44.354176 174.669283 -33.005959 -7.032073 7.032040 19.274432 7.638437 0.782191 2.646253 0.766730 1.311265 4.275227 1.269163 5.834587 16.602546 5.683732 -2.433034 24.296248 2.592551 -4.993957 9.481469 5.241328 -6.124729 -3.173912 -9.054115 12.314288 -7.196892 -2.708193 -175.892702 -56.537856 175.699863 -8.340094 -13.137832 23.776271 -9.413201 -4.584068 5.427580 -0.247470 -7.467984 0.575817 156.914536 -59.192044 -163.015653 30.347896 8.636551 -29.775231 -1.961350 -48.193541 9.629624 -93.392211 85.419408 -82.085341 -0.610026 -9.478209 -4.408199 -0.215461 0.697318 -0.117891 -10.831291 -51.806337 16.431327 -141.027840 83.738604 -148.837505 0.194280 -13.142013 7.210792 -0.196934 -0.595643 -0.085971
